<?xml version="1.0" encoding="UTF-8"?>
<svg xmlns="http://www.w3.org/2000/svg" xmlns:xlink="http://www.w3.org/1999/xlink" width="375pt" height="374.999991pt" viewBox="0 0 375 374.999991" version="1.2">
<defs>
<clipPath id="clip1">
  <path d="M 43 28 L 332 28 L 332 359 L 43 359 Z M 43 28 "/>
</clipPath>
<clipPath id="clip2">
  <path d="M 155.621094 -32.292969 L 384.375 143.90625 L 181.632812 407.125 L -47.125 230.925781 Z M 155.621094 -32.292969 "/>
</clipPath>
<clipPath id="clip3">
  <path d="M 155.621094 -32.292969 L 384.375 143.90625 L 181.632812 407.125 L -47.125 230.925781 Z M 155.621094 -32.292969 "/>
</clipPath>
</defs>
<g id="surface1">
<g clip-path="url(#clip1)" clip-rule="nonzero">
<g clip-path="url(#clip2)" clip-rule="nonzero">
<g clip-path="url(#clip3)" clip-rule="nonzero">
<path style=" stroke:none;fill-rule:nonzero;fill:rgb(75.289917%,37.649536%,7.839966%);fill-opacity:1;" d="M 253.546875 43.0625 C 248.652344 39.183594 241.800781 34.621094 234.078125 31.835938 C 218.554688 26.273438 201.351562 28.515625 201.351562 28.515625 C 198.898438 28.796875 196.746094 30.300781 195.648438 32.507812 L 168.34375 88.238281 L 115.863281 104.707031 C 115.839844 104.691406 115.824219 104.710938 115.824219 104.710938 C 115.632812 104.777344 115.441406 104.84375 115.230469 104.929688 C 115.191406 104.933594 115.171875 104.957031 115.132812 104.964844 C 114.945312 105.066406 114.777344 105.148438 114.605469 105.230469 C 114.566406 105.238281 114.535156 105.28125 114.476562 105.308594 C 113.933594 105.601562 113.4375 105.964844 112.976562 106.429688 C 112.886719 106.5 112.800781 106.613281 112.675781 106.726562 C 112.605469 106.816406 112.535156 106.90625 112.445312 106.980469 C 112.394531 107.046875 112.324219 107.136719 112.273438 107.203125 C 112.152344 107.359375 112.03125 107.515625 111.933594 107.6875 C 111.933594 107.6875 111.933594 107.6875 111.917969 107.710938 C 111.804688 107.90625 111.6875 108.101562 111.574219 108.296875 C 111.578125 108.335938 111.558594 108.359375 111.527344 108.402344 C 111.460938 108.53125 111.382812 108.683594 111.324219 108.851562 C 111.324219 108.851562 111.3125 108.914062 111.292969 108.933594 C 111.207031 109.1875 111.117188 109.4375 111.054688 109.707031 C 110.621094 110.726562 105.53125 123.792969 98.882812 155.558594 C 91.9375 188.585938 83.402344 241.464844 76.808594 321.320312 C 76.550781 324.601562 78.507812 327.636719 81.617188 328.71875 L 167.164062 358.21875 C 170.226562 359.265625 173.59375 358.164062 175.441406 355.535156 C 221.222656 289.695312 247.585938 243.621094 262.558594 213.859375 C 276.855469 185.390625 280.78125 171.679688 281.070312 170.515625 C 281.152344 170.367188 281.191406 170.21875 281.234375 170.074219 C 281.242188 169.972656 281.269531 169.886719 281.28125 169.828125 C 281.3125 169.742188 281.324219 169.679688 281.335938 169.617188 C 281.355469 169.457031 281.390625 169.269531 281.410156 169.109375 C 281.425781 169.085938 281.40625 169.066406 281.40625 169.066406 C 281.492188 168.355469 281.464844 167.65625 281.355469 166.96875 C 281.3125 166.792969 281.273438 166.65625 281.253906 166.5 C 281.25 166.460938 281.226562 166.441406 281.222656 166.402344 C 281.171875 166.1875 281.109375 165.996094 281.019531 165.789062 C 281.011719 165.707031 280.984375 165.652344 280.933594 165.578125 C 280.875 165.425781 280.816406 165.273438 280.757812 165.160156 C 280.753906 165.121094 280.75 165.082031 280.703125 165.046875 C 280.621094 164.875 280.519531 164.6875 280.414062 164.503906 C 280.390625 164.484375 280.386719 164.445312 280.363281 164.429688 C 280.335938 164.371094 280.289062 164.296875 280.261719 164.242188 L 248.824219 117.074219 L 263.242188 56.785156 C 263.816406 54.382812 263.105469 51.847656 261.390625 50.066406 C 261.390625 50.066406 258.433594 46.898438 253.546875 43.0625 Z M 244.234375 54.226562 C 246.625 56.101562 247.027344 56.59375 248.230469 57.660156 L 235.980469 108.957031 L 183.472656 90.117188 L 206.664062 42.769531 C 211.066406 42.539062 220.570312 42.324219 229.171875 45.394531 C 234.621094 47.355469 240.089844 51.035156 244.234375 54.226562 Z M 328.886719 155.675781 C 326.699219 154.136719 323.867188 153.941406 321.476562 155.15625 C 319.109375 156.390625 317.59375 158.8125 317.558594 161.488281 C 317.558594 161.488281 317.347656 172.410156 310.945312 192.105469 C 304.542969 211.800781 291.9375 239.6875 267.113281 271.917969 C 265.507812 273.953125 265.101562 276.691406 266.074219 279.113281 C 267.066406 281.511719 269.25 283.195312 271.824219 283.542969 C 274.414062 283.867188 276.960938 282.773438 278.519531 280.703125 C 304.355469 247.15625 317.726562 217.726562 324.636719 196.539062 C 331.53125 175.375 331.972656 161.855469 331.972656 161.855469 C 332.054688 159.398438 330.910156 157.058594 328.886719 155.675781 Z M 236.4375 124.445312 L 256.125 154.003906 L 195.550781 132.042969 L 140.484375 112.050781 L 173.300781 101.757812 L 222.992188 119.597656 Z M 264.710938 172.449219 C 263.785156 175.539062 262.136719 182.65625 249.667969 207.414062 C 235.480469 235.648438 209.804688 280.226562 166.570312 342.765625 L 91.753906 316.945312 C 98.222656 241.257812 106.355469 189.957031 112.945312 158.5 C 118.730469 131.078125 121.679688 124.253906 122.886719 121.027344 L 189.613281 145.238281 Z M 95.640625 57.824219 C 92.449219 55.472656 87.9375 56.117188 85.558594 59.296875 C 38.675781 120.164062 43.527344 187.652344 43.527344 187.652344 C 43.816406 191.605469 47.273438 194.589844 51.25 194.3125 C 55.203125 194.015625 58.1875 190.558594 57.914062 186.578125 C 57.914062 186.578125 53.519531 124.492188 96.96875 68.085938 C 98.175781 66.5625 98.722656 64.605469 98.472656 62.671875 C 98.222656 60.738281 97.195312 58.984375 95.640625 57.824219 Z M 95.640625 57.824219 "/>
</g>
</g>
</g>
</g>
</svg>
