<?xml version="1.0" encoding="UTF-8"?>
<svg xmlns="http://www.w3.org/2000/svg" xmlns:xlink="http://www.w3.org/1999/xlink" width="375pt" height="374.999991pt" viewBox="0 0 375 374.999991" version="1.2">
<defs>
<clipPath id="clip1">
  <path d="M 51 15 L 366 15 L 366 374 L 51 374 Z M 51 15 "/>
</clipPath>
<clipPath id="clip2">
  <path d="M 178.113281 -51 L 422.539062 145.3125 L 197.109375 425.992188 L -47.316406 229.679688 Z M 178.113281 -51 "/>
</clipPath>
<clipPath id="clip3">
  <path d="M 178.113281 -51 L 422.539062 145.3125 L 197.109375 425.992188 L -47.316406 229.679688 Z M 178.113281 -51 "/>
</clipPath>
</defs>
<g id="surface1">
<g clip-path="url(#clip1)" clip-rule="nonzero">
<g clip-path="url(#clip2)" clip-rule="nonzero">
<g clip-path="url(#clip3)" clip-rule="nonzero">
<path style=" stroke:none;fill-rule:nonzero;fill:rgb(75.289917%,37.649536%,7.839966%);fill-opacity:1;" d="M 282.746094 32.957031 C 277.519531 28.640625 270.1875 23.535156 261.867188 20.335938 C 245.144531 13.949219 226.4375 15.980469 226.4375 15.980469 C 223.773438 16.226562 221.40625 17.808594 220.167969 20.179688 L 189.382812 79.964844 L 132.113281 96.605469 C 132.089844 96.585938 132.070312 96.609375 132.070312 96.609375 C 131.863281 96.675781 131.652344 96.742188 131.421875 96.832031 C 131.378906 96.839844 131.359375 96.863281 131.316406 96.867188 C 131.113281 96.976562 130.925781 97.0625 130.742188 97.144531 C 130.699219 97.152344 130.660156 97.199219 130.597656 97.226562 C 130 97.53125 129.457031 97.914062 128.945312 98.40625 C 128.847656 98.480469 128.75 98.601562 128.613281 98.722656 C 128.535156 98.820312 128.460938 98.914062 128.359375 98.988281 C 128.300781 99.0625 128.226562 99.15625 128.167969 99.226562 C 128.035156 99.394531 127.902344 99.558594 127.792969 99.746094 C 127.792969 99.746094 127.792969 99.746094 127.773438 99.769531 C 127.644531 99.980469 127.515625 100.1875 127.386719 100.398438 C 127.390625 100.441406 127.371094 100.464844 127.332031 100.511719 C 127.261719 100.648438 127.171875 100.8125 127.101562 100.992188 C 127.101562 100.992188 127.089844 101.058594 127.070312 101.082031 C 126.96875 101.355469 126.867188 101.625 126.792969 101.917969 C 126.304688 103.011719 120.507812 117.058594 112.628906 151.34375 C 104.402344 186.992188 94.039062 244.121094 85.214844 330.542969 C 84.867188 334.097656 86.925781 337.433594 90.273438 338.675781 L 182.445312 372.640625 C 185.746094 373.84375 189.425781 372.726562 191.484375 369.921875 C 242.515625 299.601562 272.082031 250.257812 288.945312 218.339844 C 305.046875 187.804688 309.59375 173.027344 309.933594 171.777344 C 310.023438 171.613281 310.070312 171.457031 310.121094 171.300781 C 310.128906 171.191406 310.164062 171.097656 310.175781 171.03125 C 310.210938 170.941406 310.226562 170.875 310.238281 170.808594 C 310.265625 170.632812 310.308594 170.433594 310.332031 170.257812 C 310.351562 170.234375 310.328125 170.214844 310.328125 170.214844 C 310.4375 169.441406 310.417969 168.683594 310.316406 167.933594 C 310.273438 167.746094 310.234375 167.597656 310.214844 167.425781 C 310.210938 167.382812 310.1875 167.363281 310.183594 167.320312 C 310.136719 167.085938 310.070312 166.875 309.980469 166.648438 C 309.96875 166.5625 309.941406 166.5 309.886719 166.417969 C 309.828125 166.25 309.765625 166.085938 309.707031 165.960938 C 309.703125 165.917969 309.699219 165.875 309.652344 165.835938 C 309.566406 165.652344 309.457031 165.445312 309.347656 165.242188 C 309.324219 165.222656 309.316406 165.179688 309.292969 165.160156 C 309.265625 165.097656 309.214844 165.015625 309.183594 164.953125 L 276.078125 113.089844 L 292.980469 48.0625 C 293.652344 45.472656 292.933594 42.703125 291.113281 40.730469 C 291.113281 40.730469 287.972656 37.230469 282.746094 32.957031 Z M 272.414062 44.847656 C 274.96875 46.9375 275.394531 47.476562 276.675781 48.660156 L 262.316406 103.992188 L 205.753906 82.351562 L 231.902344 31.558594 C 236.683594 31.410156 246.992188 31.394531 256.261719 34.925781 C 262.128906 37.175781 267.988281 41.292969 272.414062 44.847656 Z M 362.109375 156.792969 C 359.769531 155.070312 356.703125 154.796875 354.082031 156.058594 C 351.488281 157.339844 349.796875 159.933594 349.703125 162.832031 C 349.703125 162.832031 349.242188 174.667969 341.882812 195.871094 C 334.527344 217.078125 320.269531 247.019531 292.667969 281.386719 C 290.886719 283.554688 290.386719 286.519531 291.394531 289.164062 C 292.417969 291.789062 294.75 293.664062 297.535156 294.097656 C 300.335938 294.511719 303.121094 293.382812 304.855469 291.175781 C 333.585938 255.40625 348.703125 223.804688 356.644531 200.996094 C 364.566406 178.210938 365.324219 163.5625 365.324219 163.5625 C 365.46875 160.898438 364.277344 158.335938 362.109375 156.792969 Z M 262.484375 120.796875 L 283.222656 153.296875 L 217.976562 128.085938 L 158.667969 105.140625 L 194.476562 94.734375 L 248.003906 115.226562 Z M 292.144531 173.492188 C 291.078125 176.820312 289.140625 184.5 275.097656 211.054688 C 259.117188 241.335938 230.335938 289.070312 182.125 355.871094 L 101.515625 326.144531 C 110.117188 244.242188 120.015625 188.808594 127.820312 154.859375 C 134.671875 125.265625 138.011719 117.933594 139.390625 114.460938 L 211.257812 142.253906 Z M 111.160156 45.308594 C 107.746094 42.683594 102.84375 43.28125 100.195312 46.675781 C 48.066406 111.578125 51.914062 184.859375 51.914062 184.859375 C 52.144531 189.152344 55.832031 192.464844 60.148438 192.253906 C 64.445312 192.027344 67.753906 188.347656 67.539062 184.027344 C 67.539062 184.027344 64.078125 116.613281 112.386719 56.464844 C 113.726562 54.84375 114.363281 52.734375 114.132812 50.628906 C 113.902344 48.527344 112.824219 46.605469 111.160156 45.308594 Z M 111.160156 45.308594 "/>
</g>
</g>
</g>
</g>
</svg>
